<svg width="585" height="97" viewBox="0 0 585 97" fill="none" xmlns="http://www.w3.org/2000/svg">
<path d="M104.398 54.7394C104.398 37.1845 116.287 24.8516 133.842 24.8516C144.619 24.8516 153.507 29.6292 158.285 37.6289L148.063 44.8508C144.841 39.8511 140.286 37.2956 134.176 37.2956C124.509 37.2956 118.287 44.0731 118.287 54.7394C118.287 65.2946 124.509 72.1832 134.176 72.1832C139.953 72.1832 144.841 69.5166 148.063 64.5168L158.285 71.7388C153.507 79.8496 144.619 84.5162 133.842 84.5162C116.287 84.5162 104.398 72.1832 104.398 54.7394Z" fill="black"/>
<path d="M208.592 26.407H221.925V82.9606H208.592V73.9609C205.37 80.6273 197.815 84.5162 189.26 84.5162C174.26 84.5162 163.261 72.1832 163.261 54.7394C163.261 37.1845 174.26 24.8516 189.26 24.8516C197.815 24.8516 205.37 28.8515 208.592 35.5179V26.407ZM208.926 54.7394C208.926 44.1842 202.703 37.1845 193.037 37.1845C183.37 37.1845 177.148 44.1842 177.148 54.7394C177.148 65.0723 183.37 72.1832 193.037 72.1832C202.703 72.1832 208.926 65.0723 208.926 54.7394Z" fill="black"/>
<path d="M271.53 26.1845V38.8507C269.198 38.5174 267.087 38.2951 265.308 38.2951C255.198 38.2951 250.197 43.5172 250.197 55.0724V82.9602H236.643V26.4067H249.976V35.8508C252.754 29.2955 258.976 25.4067 266.641 25.4067C268.42 25.4067 270.086 25.629 271.53 26.1845Z" fill="black"/>
<path d="M330.478 58.7393H288.369C289.814 67.7389 295.702 72.7388 305.035 72.7388C311.479 72.7388 316.701 70.4055 320.812 65.6279L328.923 73.6276C323.59 80.6273 314.924 84.5162 304.591 84.5162C286.591 84.5162 274.592 72.6277 274.592 54.9616C274.592 37.4066 286.258 24.8516 303.257 24.8516C319.59 24.8516 330.812 36.2957 330.812 53.5172C330.812 55.1838 330.701 56.9615 330.478 58.7393ZM288.369 49.5174H317.257C316.701 41.1843 311.479 36.629 303.369 36.629C295.035 36.629 289.814 41.4066 288.369 49.5174Z" fill="black"/>
<path d="M336.898 73.7387L344.231 65.1835C348.676 70.0722 355.565 72.961 362.786 72.961C369.12 72.961 372.786 70.6277 372.786 66.9612C372.786 63.9613 370.564 62.0724 364.897 60.7392L355.675 58.6282C344.12 55.9616 338.898 50.6285 338.898 42.6287C338.898 31.9624 347.898 24.8516 362.231 24.8516C372.119 24.8516 380.563 28.1848 385.452 33.8512L378.23 42.6287C373.452 38.5177 368.008 36.4067 361.897 36.4067C355.675 36.4067 352.453 38.6288 352.453 42.1842C352.453 44.962 354.564 46.5175 360.342 47.8507L370.119 50.184C381.674 52.7395 386.342 57.9615 386.342 66.0724C386.342 77.5163 377.453 84.5162 362.675 84.5162C351.564 84.5162 342.12 80.4052 336.898 73.7387Z" fill="black"/>
<path d="M395.632 61.4055V26.4067H409.187V59.9611C409.187 68.0719 413.409 72.1829 421.076 72.1829C428.742 72.1829 432.963 68.0719 432.963 59.9611V26.4067H446.519V61.4055C446.519 75.6273 436.742 84.5159 421.076 84.5159C405.41 84.5159 395.632 75.6273 395.632 61.4055Z" fill="black"/>
<path d="M458.389 8.51787C458.389 3.62916 461.833 0.0737305 467.055 0.0737305C472.055 0.0737305 475.609 3.62916 475.609 8.51787C475.609 13.4066 472.055 16.9621 467.055 16.9621C461.833 16.9621 458.389 13.4066 458.389 8.51787ZM460.277 82.9596V26.4061H473.832V82.9596H460.277Z" fill="black"/>
<path d="M493.211 66.4044V38.2942H482.545V26.4058H493.211V9.73975H506.766V26.4058H522.766V38.2942H506.766V64.6267C506.766 69.8487 509.099 71.7376 514.876 71.7376C517.654 71.7376 520.432 71.4041 522.987 70.8487V82.2927C519.543 83.2926 515.877 83.8482 511.987 83.8482C499.21 83.8482 493.211 78.4039 493.211 66.4044Z" fill="black"/>
<path d="M584.548 58.7393H542.438C543.882 67.7389 549.772 72.7388 559.104 72.7388C565.548 72.7388 570.77 70.4055 574.881 65.6279L582.992 73.6276C577.659 80.6273 568.992 84.5162 558.66 84.5162C540.66 84.5162 528.66 72.6277 528.66 54.9616C528.66 37.4066 540.326 24.8516 557.326 24.8516C573.66 24.8516 584.881 36.2957 584.881 53.5172C584.881 55.1838 584.769 56.9615 584.548 58.7393ZM542.438 49.5174H571.326C570.771 41.1843 565.548 36.629 557.437 36.629C549.105 36.629 543.882 41.4066 542.438 49.5174Z" fill="black"/>
<path d="M46.874 52.5865C46.874 44.9462 51.8635 39.9565 59.5038 39.9565C67.1442 39.9565 72.1338 44.9462 72.1338 52.5865C72.1338 60.2268 67.1442 65.3723 59.5038 65.3723C51.8635 65.3723 46.874 60.2268 46.874 52.5865Z" fill="#E6C308"/>
<path d="M104.368 54.7341C104.368 37.1791 116.257 24.8462 133.811 24.8462C144.589 24.8462 153.477 29.6238 158.255 37.6235L148.033 44.8455C144.811 39.8457 140.256 37.2902 134.145 37.2902C124.479 37.2902 118.257 44.0678 118.257 54.7341C118.257 65.2892 124.479 72.1778 134.145 72.1778C139.922 72.1778 144.811 69.5112 148.033 64.5114L158.255 71.7335C153.477 79.8442 144.589 84.5108 133.811 84.5108C116.257 84.5108 104.368 72.1778 104.368 54.7341Z" fill="white"/>
<path d="M208.561 26.4017H221.895V82.9552H208.561V73.9555C205.34 80.6219 197.784 84.5108 189.23 84.5108C174.23 84.5108 163.23 72.1778 163.23 54.7341C163.23 37.1791 174.23 24.8462 189.23 24.8462C197.784 24.8462 205.34 28.8461 208.561 35.5125V26.4017ZM208.895 54.7341C208.895 44.1788 202.673 37.1791 193.007 37.1791C183.34 37.1791 177.118 44.1788 177.118 54.7341C177.118 65.067 183.34 72.1778 193.007 72.1778C202.673 72.1778 208.895 65.067 208.895 54.7341Z" fill="white"/>
<path d="M271.5 26.1796V38.8458C269.167 38.5125 267.056 38.2902 265.278 38.2902C255.167 38.2902 250.167 43.5123 250.167 55.0675V82.9553H236.612V26.4018H249.946V35.8459C252.724 29.2906 258.946 25.4019 266.611 25.4019C268.39 25.4019 270.056 25.6241 271.5 26.1796Z" fill="white"/>
<path d="M330.448 58.7339H288.339C289.784 67.7335 295.672 72.7334 305.004 72.7334C311.449 72.7334 316.671 70.4001 320.782 65.6225L328.892 73.6222C323.559 80.6219 314.893 84.5108 304.56 84.5108C286.561 84.5108 274.562 72.6223 274.562 54.9562C274.562 37.4013 286.228 24.8462 303.227 24.8462C319.56 24.8462 330.782 36.2903 330.782 53.5118C330.782 55.1784 330.671 56.9562 330.448 58.7339ZM288.339 49.512H317.227C316.671 41.179 311.449 36.6236 303.338 36.6236C295.005 36.6236 289.784 41.4012 288.339 49.512Z" fill="white"/>
<path d="M336.868 73.7333L344.201 65.1781C348.646 70.0668 355.535 72.9556 362.756 72.9556C369.089 72.9556 372.755 70.6224 372.755 66.9559C372.755 63.956 370.534 62.0671 364.867 60.7338L355.645 58.6228C344.09 55.9562 338.868 50.6231 338.868 42.6234C338.868 31.9571 347.868 24.8462 362.201 24.8462C372.089 24.8462 380.533 28.1794 385.422 33.8458L378.199 42.6234C373.422 38.5124 367.978 36.4014 361.867 36.4014C355.645 36.4014 352.423 38.6234 352.423 42.1789C352.423 44.9566 354.534 46.5121 360.312 47.8453L370.089 50.1786C381.644 52.7341 386.311 57.9561 386.311 66.067C386.311 77.511 377.423 84.5108 362.645 84.5108C351.534 84.5108 342.09 80.3998 336.868 73.7333Z" fill="white"/>
<path d="M395.602 61.4002V26.4014H409.156V59.9557C409.156 68.0665 413.379 72.1775 421.045 72.1775C428.712 72.1775 432.933 68.0665 432.933 59.9557V26.4014H446.489V61.4002C446.489 75.6219 436.711 84.5105 421.045 84.5105C405.379 84.5105 395.602 75.6219 395.602 61.4002Z" fill="white"/>
<path d="M458.357 8.5125C458.357 3.62379 461.802 0.0683594 467.023 0.0683594C472.024 0.0683594 475.578 3.62379 475.578 8.5125C475.578 13.4012 472.024 16.9567 467.023 16.9567C461.802 16.9567 458.357 13.4012 458.357 8.5125ZM460.246 82.9542V26.4007H473.801V82.9542H460.246Z" fill="white"/>
<path d="M493.18 66.3995V38.2894H482.514V26.4009H493.18V9.73486H506.734V26.4009H522.734V38.2894H506.734V64.6218C506.734 69.8438 509.068 71.7327 514.845 71.7327C517.623 71.7327 520.401 71.3993 522.956 70.8438V82.2878C519.511 83.2877 515.846 83.8433 511.956 83.8433C499.179 83.8433 493.18 78.3991 493.18 66.3995Z" fill="white"/>
<path d="M584.517 58.7339H542.406C543.851 67.7335 549.74 72.7334 559.073 72.7334C565.516 72.7334 570.739 70.4001 574.85 65.6225L582.961 73.6222C577.628 80.6219 568.961 84.5108 558.629 84.5108C540.629 84.5108 528.629 72.6223 528.629 54.9562C528.629 37.4013 540.295 24.8462 557.295 24.8462C573.628 24.8462 584.849 36.2903 584.849 53.5118C584.849 55.1784 584.738 56.9562 584.517 58.7339ZM542.406 49.512H571.295C570.739 41.179 565.516 36.6236 557.406 36.6236C549.074 36.6236 543.851 41.4012 542.406 49.512Z" fill="white"/>
<path d="M63.9927 15.0117C63.9927 15.0117 58.1697 14.9572 51.1854 14.9334C40.8803 14.8985 32.6325 23.2573 32.6325 33.5623C32.6325 44.0159 24.1582 52.4901 13.7047 52.4901M13.7047 52.4901H7.2455M13.7047 52.4901C24.1582 52.4901 32.6325 60.9637 32.6325 71.4172C32.6325 81.7222 40.8803 90.0811 51.1854 90.0461C58.1697 90.0223 63.9927 89.9678 63.9927 89.9678M63.962 15.0066C63.962 15.0066 58.1391 14.9521 51.1547 14.9283C40.8497 14.8934 32.6018 23.2522 32.6018 33.5572C32.6018 44.0108 24.1275 52.485 13.674 52.485M13.674 52.485H7.21484M13.674 52.485C24.1275 52.485 32.6018 60.9586 32.6018 71.4121C32.6018 81.7171 40.8497 90.0759 51.1547 90.041C58.1391 90.0172 63.962 89.9627 63.962 89.9627" stroke="white" stroke-width="13.5341" stroke-linecap="round"/>
<path d="M46.8438 52.5811C46.8438 44.9408 51.8333 39.9512 59.4736 39.9512C67.114 39.9512 72.1035 44.9408 72.1035 52.5811C72.1035 60.2214 67.114 65.3669 59.4736 65.3669C51.8333 65.3669 46.8438 60.2214 46.8438 52.5811Z" fill="#F09375"/>
</svg>
