<svg width="194" height="194" viewBox="0 0 194 194" fill="none" xmlns="http://www.w3.org/2000/svg">
<rect x="0.742188" y="0.820312" width="192.859" height="192.859" rx="20" fill="white"/>
<path d="M127.689 50.2194C127.689 50.2194 120.382 50.151 111.617 50.1212C98.6844 50.0773 88.3339 60.5671 88.3339 73.4993C88.3339 86.6179 77.6992 97.2525 64.5807 97.2525H56.4749" stroke="#E6C308" stroke-width="16.9845" stroke-linecap="round"/>
<path d="M127.689 144.287C127.689 144.287 120.381 144.355 111.616 144.385C98.6842 144.429 88.3336 133.939 88.3336 121.007C88.3336 107.889 77.6989 97.2539 64.5805 97.2539H56.4746" stroke="#E6C308" stroke-width="16.9845" stroke-linecap="round"/>
<path d="M106.207 97.3751C106.207 87.7871 112.469 81.5254 122.057 81.5254C131.645 81.5254 137.906 87.7871 137.906 97.3751C137.906 106.963 131.645 113.421 122.057 113.421C112.469 113.421 106.207 106.963 106.207 97.3751Z" fill="#E6C308"/>
<path d="M127.651 50.2136C127.651 50.2136 120.343 50.1452 111.578 50.1154C98.6461 50.0715 88.2956 60.5613 88.2956 73.4935C88.2956 86.6121 77.6608 97.2467 64.5424 97.2467H56.4365" stroke="#1C4851" stroke-width="16.9845" stroke-linecap="round"/>
<path d="M127.651 144.28C127.651 144.28 120.343 144.349 111.578 144.378C98.6461 144.422 88.2956 133.932 88.2956 121C88.2956 107.882 77.6608 97.2471 64.5424 97.2471H56.4365" stroke="#1C4851" stroke-width="16.9845" stroke-linecap="round"/>
<path d="M106.169 97.3693C106.169 87.7812 112.43 81.5195 122.019 81.5195C131.607 81.5195 137.868 87.7812 137.868 97.3693C137.868 106.957 131.607 113.415 122.019 113.415C112.43 113.415 106.169 106.957 106.169 97.3693Z" fill="#F09375"/>
</svg>
