<svg width="65" height="65" viewBox="0 0 65 65" fill="none" xmlns="http://www.w3.org/2000/svg">
<rect x="0.833008" y="0.817383" width="64.0022" height="64.0022" fill="white"/>
<path d="M42.9623 17.2109C42.9623 17.2109 40.5372 17.1882 37.6285 17.1783C33.3368 17.1637 29.9019 20.6448 29.9019 24.9365C29.9019 29.2901 26.3726 32.8193 22.0191 32.8193H19.3291" stroke="#E6C308" stroke-width="5.63647" stroke-linecap="round"/>
<path d="M42.9623 48.4278C42.9623 48.4278 40.5372 48.4505 37.6285 48.4604C33.3368 48.4749 29.9019 44.9938 29.9019 40.7021C29.9019 36.3486 26.3726 32.8193 22.0191 32.8193H19.3291" stroke="#E6C308" stroke-width="5.63647" stroke-linecap="round"/>
<path d="M35.833 32.86C35.833 29.6781 37.911 27.6001 41.0929 27.6001C44.2748 27.6001 46.3528 29.6781 46.3528 32.86C46.3528 36.0419 44.2748 38.1849 41.0929 38.1849C37.911 38.1849 35.833 36.0419 35.833 32.86Z" fill="#E6C308"/>
<path d="M42.9496 17.2089C42.9496 17.2089 40.5245 17.1862 37.6158 17.1763C33.3241 17.1617 29.8892 20.6429 29.8892 24.9346C29.8892 29.2881 26.3599 32.8173 22.0064 32.8173H19.3164" stroke="#1C4851" stroke-width="5.63647" stroke-linecap="round"/>
<path d="M42.9496 48.4258C42.9496 48.4258 40.5245 48.4485 37.6158 48.4584C33.3241 48.473 29.8892 44.9918 29.8892 40.7001C29.8892 36.3466 26.3599 32.8174 22.0064 32.8174H19.3164" stroke="#1C4851" stroke-width="5.63647" stroke-linecap="round"/>
<path d="M35.8213 32.8581C35.8213 29.6761 37.8992 27.5981 41.0812 27.5981C44.2631 27.5981 46.3411 29.6761 46.3411 32.8581C46.3411 36.04 44.2631 38.1829 41.0812 38.1829C37.8992 38.1829 35.8213 36.04 35.8213 32.8581Z" fill="#F09375"/>
</svg>
